<svg class="interpolate chart" width="1280" height="720"><rect class="background" width="1280" height="720" style="pointer-events: all;"></rect><path class="area" d="M0,400.1697270282123L36.57142857142857,369.0218855959079L73.14285714285714,351.63965820082007L109.71428571428572,400.4976924138325L146.28571428571428,384.0343987119784L182.85714285714283,381.7236717884372L219.42857142857144,382.85072740404945L255.99999999999997,352.9698950360161L292.57142857142856,316.710660587065L329.1428571428571,346.61671933832645L365.71428571428567,349.85045738035586L402.2857142857143,355.54476624284894L438.8571428571429,353.04849263414394L475.42857142857144,374.16643587291657L511.99999999999994,364.9680464342452L548.5714285714286,346.30313289565174L585.1428571428571,372.7770644169332L621.7142857142857,371.606163929833L658.2857142857142,305.37796775715947L694.8571428571428,371.33225422562464L731.4285714285713,372.98383513558616L768,357.45780856380804L804.5714285714286,344.16291397977835L841.1428571428571,358.76508539586143L877.7142857142858,336.0077177963965L914.2857142857143,352.54586931585385L950.8571428571429,378.57917052647514L987.4285714285713,347.7459173203259L1023.9999999999999,337.92682166255264L1060.5714285714284,363.77554857823503L1097.142857142857,365.0232109921872L1133.7142857142858,351.6505159429996L1170.2857142857142,314.8099766742671L1206.857142857143,347.2407312759255L1243.4285714285713,378.89432055244873L1280,339.16330654768944L1280,720L1243.4285714285713,720L1206.857142857143,720L1170.2857142857142,720L1133.7142857142858,720L1097.142857142857,720L1060.5714285714284,720L1023.9999999999999,720L987.4285714285713,720L950.8571428571429,720L914.2857142857143,720L877.7142857142858,720L841.1428571428571,720L804.5714285714286,720L768,720L731.4285714285713,720L694.8571428571428,720L658.2857142857142,720L621.7142857142857,720L585.1428571428571,720L548.5714285714286,720L511.99999999999994,720L475.42857142857144,720L438.8571428571429,720L402.2857142857143,720L365.71428571428567,720L329.1428571428571,720L292.57142857142856,720L255.99999999999997,720L219.42857142857144,720L182.85714285714283,720L146.28571428571428,720L109.71428571428572,720L73.14285714285714,720L36.57142857142857,720L0,720Z"></path><circle r="6" cx="0" cy="400.1697270282123"></circle><circle r="6" cx="36.57142857142857" cy="369.0218855959079"></circle><circle r="6" cx="73.14285714285714" cy="351.63965820082007"></circle><circle r="6" cx="109.71428571428572" cy="400.4976924138325"></circle><circle r="6" cx="146.28571428571428" cy="384.0343987119784"></circle><circle r="6" cx="182.85714285714283" cy="381.7236717884372"></circle><circle r="6" cx="219.42857142857144" cy="382.85072740404945"></circle><circle r="6" cx="255.99999999999997" cy="352.9698950360161"></circle><circle r="6" cx="292.57142857142856" cy="316.710660587065"></circle><circle r="6" cx="329.1428571428571" cy="346.61671933832645"></circle><circle r="6" cx="365.71428571428567" cy="349.85045738035586"></circle><circle r="6" cx="402.2857142857143" cy="355.54476624284894"></circle><circle r="6" cx="438.8571428571429" cy="353.04849263414394"></circle><circle r="6" cx="475.42857142857144" cy="374.16643587291657"></circle><circle r="6" cx="511.99999999999994" cy="364.9680464342452"></circle><circle r="6" cx="548.5714285714286" cy="346.30313289565174"></circle><circle r="6" cx="585.1428571428571" cy="372.7770644169332"></circle><circle r="6" cx="621.7142857142857" cy="371.606163929833"></circle><circle r="6" cx="658.2857142857142" cy="305.37796775715947"></circle><circle r="6" cx="694.8571428571428" cy="371.33225422562464"></circle><circle r="6" cx="731.4285714285713" cy="372.98383513558616"></circle><circle r="6" cx="768" cy="357.45780856380804"></circle><circle r="6" cx="804.5714285714286" cy="344.16291397977835"></circle><circle r="6" cx="841.1428571428571" cy="358.76508539586143"></circle><circle r="6" cx="877.7142857142858" cy="336.0077177963965"></circle><circle r="6" cx="914.2857142857143" cy="352.54586931585385"></circle><circle r="6" cx="950.8571428571429" cy="378.57917052647514"></circle><circle r="6" cx="987.4285714285713" cy="347.7459173203259"></circle><circle r="6" cx="1023.9999999999999" cy="337.92682166255264"></circle><circle r="6" cx="1060.5714285714284" cy="363.77554857823503"></circle><circle r="6" cx="1097.142857142857" cy="365.0232109921872"></circle><circle r="6" cx="1133.7142857142858" cy="351.6505159429996"></circle><circle r="6" cx="1170.2857142857142" cy="314.8099766742671"></circle><circle r="6" cx="1206.857142857143" cy="347.2407312759255"></circle><circle r="6" cx="1243.4285714285713" cy="378.89432055244873"></circle><circle r="6" cx="1280" cy="339.16330654768944"></circle></svg>