<svg width="1280" height="720" class="dot chart"><g transform="translate(80,80)"><circle class="dot" cx="653.3333333333333" cy="47.299999999999955" r="12"></circle><circle class="dot" cx="466.66666666666663" cy="102.29999999999995" r="12"></circle><circle class="dot" cx="933.3333333333333" cy="69.30000000000001" r="12"></circle><circle class="dot" cx="560" cy="67.65000000000003" r="12"></circle><circle class="dot" cx="746.6666666666666" cy="40.69999999999999" r="12"></circle><circle class="dot" cx="1026.6666666666665" cy="104.5" r="12"></circle><circle class="dot" cx="280" cy="212.85" r="12"></circle><circle class="dot" cx="93.33333333333333" cy="379.5" r="12"></circle><circle class="dot" cx="840" cy="47.849999999999966" r="12"></circle><circle class="dot" cx="373.3333333333333" cy="150.7" r="12"></circle><circle class="dot" cx="186.66666666666666" cy="289.29999999999995" r="12"></circle><g class="x axis" transform="translate(0,440)"><g transform="translate(0,0)" style="opacity: 1;"><line class="tick" y2="6" x2="0"></line><text y="14" x="0" dy=".71em" text-anchor="middle">3</text></g><g transform="translate(93.33333333333333,0)" style="opacity: 1;"><line class="tick" y2="6" x2="0"></line><text y="14" x="0" dy=".71em" text-anchor="middle">4</text></g><g transform="translate(186.66666666666666,0)" style="opacity: 1;"><line class="tick" y2="6" x2="0"></line><text y="14" x="0" dy=".71em" text-anchor="middle">5</text></g><g transform="translate(280,0)" style="opacity: 1;"><line class="tick" y2="6" x2="0"></line><text y="14" x="0" dy=".71em" text-anchor="middle">6</text></g><g transform="translate(373.3333333333333,0)" style="opacity: 1;"><line class="tick" y2="6" x2="0"></line><text y="14" x="0" dy=".71em" text-anchor="middle">7</text></g><g transform="translate(466.66666666666663,0)" style="opacity: 1;"><line class="tick" y2="6" x2="0"></line><text y="14" x="0" dy=".71em" text-anchor="middle">8</text></g><g transform="translate(560,0)" style="opacity: 1;"><line class="tick" y2="6" x2="0"></line><text y="14" x="0" dy=".71em" text-anchor="middle">9</text></g><g transform="translate(653.3333333333333,0)" style="opacity: 1;"><line class="tick" y2="6" x2="0"></line><text y="14" x="0" dy=".71em" text-anchor="middle">10</text></g><g transform="translate(746.6666666666666,0)" style="opacity: 1;"><line class="tick" y2="6" x2="0"></line><text y="14" x="0" dy=".71em" text-anchor="middle">11</text></g><g transform="translate(840,0)" style="opacity: 1;"><line class="tick" y2="6" x2="0"></line><text y="14" x="0" dy=".71em" text-anchor="middle">12</text></g><g transform="translate(933.3333333333333,0)" style="opacity: 1;"><line class="tick" y2="6" x2="0"></line><text y="14" x="0" dy=".71em" text-anchor="middle">13</text></g><g transform="translate(1026.6666666666665,0)" style="opacity: 1;"><line class="tick" y2="6" x2="0"></line><text y="14" x="0" dy=".71em" text-anchor="middle">14</text></g><g transform="translate(1120,0)" style="opacity: 1;"><line class="tick" y2="6" x2="0"></line><text y="14" x="0" dy=".71em" text-anchor="middle">15</text></g><path class="domain" d="M0,6V0H1120V6"></path></g><g class="y axis"><g transform="translate(0,440)" style="opacity: 1;"><line class="tick" x2="-6" y2="0"></line><text x="-14" y="0" dy=".32em" text-anchor="end">2</text></g><g transform="translate(0,385)" style="opacity: 1;"><line class="tick" x2="-6" y2="0"></line><text x="-14" y="0" dy=".32em" text-anchor="end">3</text></g><g transform="translate(0,330)" style="opacity: 1;"><line class="tick" x2="-6" y2="0"></line><text x="-14" y="0" dy=".32em" text-anchor="end">4</text></g><g transform="translate(0,275)" style="opacity: 1;"><line class="tick" x2="-6" y2="0"></line><text x="-14" y="0" dy=".32em" text-anchor="end">5</text></g><g transform="translate(0,220)" style="opacity: 1;"><line class="tick" x2="-6" y2="0"></line><text x="-14" y="0" dy=".32em" text-anchor="end">6</text></g><g transform="translate(0,165)" style="opacity: 1;"><line class="tick" x2="-6" y2="0"></line><text x="-14" y="0" dy=".32em" text-anchor="end">7</text></g><g transform="translate(0,110)" style="opacity: 1;"><line class="tick" x2="-6" y2="0"></line><text x="-14" y="0" dy=".32em" text-anchor="end">8</text></g><g transform="translate(0,55)" style="opacity: 1;"><line class="tick" x2="-6" y2="0"></line><text x="-14" y="0" dy=".32em" text-anchor="end">9</text></g><g transform="translate(0,0)" style="opacity: 1;"><line class="tick" x2="-6" y2="0"></line><text x="-14" y="0" dy=".32em" text-anchor="end">10</text></g><path class="domain" d="M-6,0H0V440H-6"></path></g></g></svg>