<svg class="interpolate chart" width="1280" height="720"><rect class="background" width="1280" height="720" style="pointer-events: all;"></rect><path class="area" d="M0,357.08781558712417H36.57142857142857V374.9976201925152H73.14285714285714V356.4745018290902H109.71428571428572V364.825270977104H146.28571428571428V346.06218743120786H182.85714285714283V380.58107269542506H219.42857142857144V358.1527724246938H255.99999999999997V347.3758801283724H292.57142857142856V380.92087753745443H329.1428571428571V363.7884292361322H365.71428571428567V368.2384743261827H402.2857142857143V387.7412250456704H438.8571428571429V362.7102052183411H475.42857142857144V363.3544524898135H511.99999999999994V326.55438278609427H548.5714285714286V379.2192575341492H585.1428571428571V367.94648143335775H621.7142857142857V373.5114740885427H658.2857142857142V364.7461580481649H694.8571428571428V344.20050385389544H731.4285714285713V334.07261751590664H768V351.71988648908234H804.5714285714286V367.604364959873H841.1428571428571V383.87964307978007H877.7142857142858V358.7061507183109H914.2857142857143V345.20047898307115H950.8571428571429V363.8709535665528H987.4285714285713V322.8387732581692H1023.9999999999999V367.5061373769693H1060.5714285714284V392.3895892012369H1097.142857142857V359.82452634549514H1133.7142857142858V379.1238817333637H1170.2857142857142V336.2821063070587H1206.857142857143V348.8052449182936H1243.4285714285713V318.7940772199734H1280V312.0232364829652L1280,720V720H1243.4285714285713V720H1206.857142857143V720H1170.2857142857142V720H1133.7142857142858V720H1097.142857142857V720H1060.5714285714284V720H1023.9999999999999V720H987.4285714285713V720H950.8571428571429V720H914.2857142857143V720H877.7142857142858V720H841.1428571428571V720H804.5714285714286V720H768V720H731.4285714285713V720H694.8571428571428V720H658.2857142857142V720H621.7142857142857V720H585.1428571428571V720H548.5714285714286V720H511.99999999999994V720H475.42857142857144V720H438.8571428571429V720H402.2857142857143V720H365.71428571428567V720H329.1428571428571V720H292.57142857142856V720H255.99999999999997V720H219.42857142857144V720H182.85714285714283V720H146.28571428571428V720H109.71428571428572V720H73.14285714285714V720H36.57142857142857V720H0Z"></path><circle r="6" cx="0" cy="357.08781558712417"></circle><circle r="6" cx="36.57142857142857" cy="374.9976201925152"></circle><circle r="6" cx="73.14285714285714" cy="356.4745018290902"></circle><circle r="6" cx="109.71428571428572" cy="364.825270977104"></circle><circle r="6" cx="146.28571428571428" cy="346.06218743120786"></circle><circle r="6" cx="182.85714285714283" cy="380.58107269542506"></circle><circle r="6" cx="219.42857142857144" cy="358.1527724246938"></circle><circle r="6" cx="255.99999999999997" cy="347.3758801283724"></circle><circle r="6" cx="292.57142857142856" cy="380.92087753745443"></circle><circle r="6" cx="329.1428571428571" cy="363.7884292361322"></circle><circle r="6" cx="365.71428571428567" cy="368.2384743261827"></circle><circle r="6" cx="402.2857142857143" cy="387.7412250456704"></circle><circle r="6" cx="438.8571428571429" cy="362.7102052183411"></circle><circle r="6" cx="475.42857142857144" cy="363.3544524898135"></circle><circle r="6" cx="511.99999999999994" cy="326.55438278609427"></circle><circle r="6" cx="548.5714285714286" cy="379.2192575341492"></circle><circle r="6" cx="585.1428571428571" cy="367.94648143335775"></circle><circle r="6" cx="621.7142857142857" cy="373.5114740885427"></circle><circle r="6" cx="658.2857142857142" cy="364.7461580481649"></circle><circle r="6" cx="694.8571428571428" cy="344.20050385389544"></circle><circle r="6" cx="731.4285714285713" cy="334.07261751590664"></circle><circle r="6" cx="768" cy="351.71988648908234"></circle><circle r="6" cx="804.5714285714286" cy="367.604364959873"></circle><circle r="6" cx="841.1428571428571" cy="383.87964307978007"></circle><circle r="6" cx="877.7142857142858" cy="358.7061507183109"></circle><circle r="6" cx="914.2857142857143" cy="345.20047898307115"></circle><circle r="6" cx="950.8571428571429" cy="363.8709535665528"></circle><circle r="6" cx="987.4285714285713" cy="322.8387732581692"></circle><circle r="6" cx="1023.9999999999999" cy="367.5061373769693"></circle><circle r="6" cx="1060.5714285714284" cy="392.3895892012369"></circle><circle r="6" cx="1097.142857142857" cy="359.82452634549514"></circle><circle r="6" cx="1133.7142857142858" cy="379.1238817333637"></circle><circle r="6" cx="1170.2857142857142" cy="336.2821063070587"></circle><circle r="6" cx="1206.857142857143" cy="348.8052449182936"></circle><circle r="6" cx="1243.4285714285713" cy="318.7940772199734"></circle><circle r="6" cx="1280" cy="312.0232364829652"></circle></svg>