<svg width="1280" height="720" class="time chart"><g transform="translate(80,80)"><rect class="background" width="1120" height="560"></rect><g class="x axis minor" transform="translate(0,560)"><line class="tick minor" y2="-560" x2="0" transform="translate(55.2155172413793,0)" style="opacity: 1;"></line><line class="tick minor" y2="-560" x2="0" transform="translate(165.34482758620692,0)" style="opacity: 1;"></line><line class="tick minor" y2="-560" x2="0" transform="translate(275.4741379310345,0)" style="opacity: 1;"></line><line class="tick minor" y2="-560" x2="0" transform="translate(385.6034482758621,0)" style="opacity: 1;"></line><line class="tick minor" y2="-560" x2="0" transform="translate(496.0344827586207,0)" style="opacity: 1;"></line><line class="tick minor" y2="-560" x2="0" transform="translate(606.1637931034484,0)" style="opacity: 1;"></line><line class="tick minor" y2="-560" x2="0" transform="translate(716.2931034482758,0)" style="opacity: 1;"></line><line class="tick minor" y2="-560" x2="0" transform="translate(826.4224137931035,0)" style="opacity: 1;"></line><line class="tick minor" y2="-560" x2="0" transform="translate(936.8534482758621,0)" style="opacity: 1;"></line><line class="tick minor" y2="-560" x2="0" transform="translate(1046.9827586206895,0)" style="opacity: 1;"></line><g transform="translate(0,0)" style="opacity: 1;"><line class="tick" y2="-560" x2="0"></line><text y="8" x="0" dy=".71em" text-anchor="middle">2000</text></g><g transform="translate(110.4310344827586,0)" style="opacity: 1;"><line class="tick" y2="-560" x2="0"></line><text y="8" x="0" dy=".71em" text-anchor="middle">2001</text></g><g transform="translate(220.56034482758622,0)" style="opacity: 1;"><line class="tick" y2="-560" x2="0"></line><text y="8" x="0" dy=".71em" text-anchor="middle">2002</text></g><g transform="translate(330.68965517241384,0)" style="opacity: 1;"><line class="tick" y2="-560" x2="0"></line><text y="8" x="0" dy=".71em" text-anchor="middle">2003</text></g><g transform="translate(440.8189655172414,0)" style="opacity: 1;"><line class="tick" y2="-560" x2="0"></line><text y="8" x="0" dy=".71em" text-anchor="middle">2004</text></g><g transform="translate(551.25,0)" style="opacity: 1;"><line class="tick" y2="-560" x2="0"></line><text y="8" x="0" dy=".71em" text-anchor="middle">2005</text></g><g transform="translate(661.3793103448277,0)" style="opacity: 1;"><line class="tick" y2="-560" x2="0"></line><text y="8" x="0" dy=".71em" text-anchor="middle">2006</text></g><g transform="translate(771.5086206896551,0)" style="opacity: 1;"><line class="tick" y2="-560" x2="0"></line><text y="8" x="0" dy=".71em" text-anchor="middle">2007</text></g><g transform="translate(881.6379310344828,0)" style="opacity: 1;"><line class="tick" y2="-560" x2="0"></line><text y="8" x="0" dy=".71em" text-anchor="middle">2008</text></g><g transform="translate(992.0689655172414,0)" style="opacity: 1;"><line class="tick" y2="-560" x2="0"></line><text y="8" x="0" dy=".71em" text-anchor="middle">2009</text></g><g transform="translate(1102.1982758620688,0)" style="opacity: 1;"><line class="tick" y2="-560" x2="0"></line><text y="8" x="0" dy=".71em" text-anchor="middle">2010</text></g><path class="domain" d="M0,-560V0H1120V-560"></path></g><g class="y axis minor" transform="translate(1120)"><line class="tick minor" x2="-1120" y2="0" transform="translate(0,525)" style="opacity: 1;"></line><line class="tick minor" x2="-1120" y2="0" transform="translate(0,455)" style="opacity: 1;"></line><line class="tick minor" x2="-1120" y2="0" transform="translate(0,385)" style="opacity: 1;"></line><line class="tick minor" x2="-1120" y2="0" transform="translate(0,315)" style="opacity: 1;"></line><line class="tick minor" x2="-1120" y2="0" transform="translate(0,245)" style="opacity: 1;"></line><line class="tick minor" x2="-1120" y2="0" transform="translate(0,175)" style="opacity: 1;"></line><line class="tick minor" x2="-1120" y2="0" transform="translate(0,105)" style="opacity: 1;"></line><line class="tick minor" x2="-1120" y2="0" transform="translate(0,35)" style="opacity: 1;"></line><g transform="translate(0,560)" style="opacity: 1;"><line class="tick" x2="-1120" y2="0"></line><text x="8" y="0" dy=".32em" text-anchor="start">0</text></g><g transform="translate(0,490)" style="opacity: 1;"><line class="tick" x2="-1120" y2="0"></line><text x="8" y="0" dy=".32em" text-anchor="start">200</text></g><g transform="translate(0,420)" style="opacity: 1;"><line class="tick" x2="-1120" y2="0"></line><text x="8" y="0" dy=".32em" text-anchor="start">400</text></g><g transform="translate(0,350)" style="opacity: 1;"><line class="tick" x2="-1120" y2="0"></line><text x="8" y="0" dy=".32em" text-anchor="start">600</text></g><g transform="translate(0,280)" style="opacity: 1;"><line class="tick" x2="-1120" y2="0"></line><text x="8" y="0" dy=".32em" text-anchor="start">800</text></g><g transform="translate(0,210)" style="opacity: 1;"><line class="tick" x2="-1120" y2="0"></line><text x="8" y="0" dy=".32em" text-anchor="start">1,000</text></g><g transform="translate(0,140)" style="opacity: 1;"><line class="tick" x2="-1120" y2="0"></line><text x="8" y="0" dy=".32em" text-anchor="start">1,200</text></g><g transform="translate(0,70)" style="opacity: 1;"><line class="tick" x2="-1120" y2="0"></line><text x="8" y="0" dy=".32em" text-anchor="start">1,400</text></g><g transform="translate(0,0)" style="opacity: 1;"><line class="tick" x2="-1120" y2="0"></line><text x="8" y="0" dy=".32em" text-anchor="start">1,600</text></g><path class="domain" d="M-1120,0H0V560H-1120"></path></g><g class="x axis major" transform="translate(0,560)"><g transform="translate(0,0)" style="opacity: 1;"><line class="tick" y2="6" x2="0"></line><text y="14" x="0" dy=".71em" text-anchor="middle">2000</text></g><g transform="translate(110.4310344827586,0)" style="opacity: 1;"><line class="tick" y2="6" x2="0"></line><text y="14" x="0" dy=".71em" text-anchor="middle">2001</text></g><g transform="translate(220.56034482758622,0)" style="opacity: 1;"><line class="tick" y2="6" x2="0"></line><text y="14" x="0" dy=".71em" text-anchor="middle">2002</text></g><g transform="translate(330.68965517241384,0)" style="opacity: 1;"><line class="tick" y2="6" x2="0"></line><text y="14" x="0" dy=".71em" text-anchor="middle">2003</text></g><g transform="translate(440.8189655172414,0)" style="opacity: 1;"><line class="tick" y2="6" x2="0"></line><text y="14" x="0" dy=".71em" text-anchor="middle">2004</text></g><g transform="translate(551.25,0)" style="opacity: 1;"><line class="tick" y2="6" x2="0"></line><text y="14" x="0" dy=".71em" text-anchor="middle">2005</text></g><g transform="translate(661.3793103448277,0)" style="opacity: 1;"><line class="tick" y2="6" x2="0"></line><text y="14" x="0" dy=".71em" text-anchor="middle">2006</text></g><g transform="translate(771.5086206896551,0)" style="opacity: 1;"><line class="tick" y2="6" x2="0"></line><text y="14" x="0" dy=".71em" text-anchor="middle">2007</text></g><g transform="translate(881.6379310344828,0)" style="opacity: 1;"><line class="tick" y2="6" x2="0"></line><text y="14" x="0" dy=".71em" text-anchor="middle">2008</text></g><g transform="translate(992.0689655172414,0)" style="opacity: 1;"><line class="tick" y2="6" x2="0"></line><text y="14" x="0" dy=".71em" text-anchor="middle">2009</text></g><g transform="translate(1102.1982758620688,0)" style="opacity: 1;"><line class="tick" y2="6" x2="0"></line><text y="14" x="0" dy=".71em" text-anchor="middle">2010</text></g><path class="domain" d="M0,6V0H1120V6"></path></g><g class="y axis major" transform="translate(1120)"><g transform="translate(0,560)" style="opacity: 1;"><line class="tick" x2="6" y2="0"></line><text x="14" y="0" dy=".32em" text-anchor="start">0</text></g><g transform="translate(0,490)" style="opacity: 1;"><line class="tick" x2="6" y2="0"></line><text x="14" y="0" dy=".32em" text-anchor="start">200</text></g><g transform="translate(0,420)" style="opacity: 1;"><line class="tick" x2="6" y2="0"></line><text x="14" y="0" dy=".32em" text-anchor="start">400</text></g><g transform="translate(0,350)" style="opacity: 1;"><line class="tick" x2="6" y2="0"></line><text x="14" y="0" dy=".32em" text-anchor="start">600</text></g><g transform="translate(0,280)" style="opacity: 1;"><line class="tick" x2="6" y2="0"></line><text x="14" y="0" dy=".32em" text-anchor="start">800</text></g><g transform="translate(0,210)" style="opacity: 1;"><line class="tick" x2="6" y2="0"></line><text x="14" y="0" dy=".32em" text-anchor="start">1,000</text></g><g transform="translate(0,140)" style="opacity: 1;"><line class="tick" x2="6" y2="0"></line><text x="14" y="0" dy=".32em" text-anchor="start">1,200</text></g><g transform="translate(0,70)" style="opacity: 1;"><line class="tick" x2="6" y2="0"></line><text x="14" y="0" dy=".32em" text-anchor="start">1,400</text></g><g transform="translate(0,0)" style="opacity: 1;"><line class="tick" x2="6" y2="0"></line><text x="14" y="0" dy=".32em" text-anchor="start">1,600</text></g><path class="domain" d="M6,0H0V560H6"></path></g><path class="area" d="M0,71.93899999999996L9.353448275862068,81.75299999999999L18.10344827586207,35.49700000000007L27.444324712643677,51.64949999999999L36.49604885057471,62.79000000000002L45.84949712643678,50.89000000000004L54.90122126436781,59.20950000000005L64.25466954022988,28.812000000000012L73.60811781609196,57.22149999999999L82.65984195402298,59.70999999999998L92.02586206896552,99.76749999999993L101.07758620689654,97.90199999999999L110.4310344827586,81.8965L119.7844827586207,126.02100000000002L128.23275862068965,153.88450000000006L137.57363505747125,122.68900000000002L146.6253591954023,120.46300000000002L155.97880747126436,131.46699999999993L165.0305316091954,136.06949999999995L174.38397988505747,163.247L183.73742816091954,195.67099999999994L192.78915229885058,189.077L202.15517241379308,161.1925L211.20689655172413,158.17199999999997L220.56034482758622,164.42999999999995L229.91379310344826,172.64449999999994L238.3620689655172,158.4135L247.70294540229884,183.07799999999997L256.7546695402299,186.50099999999992L266.108117816092,213.563L275.159841954023,240.933L284.51329022988506,239.3755L293.86673850574715,274.65200000000004L302.9184626436782,249.98400000000004L312.2844827586207,232.29150000000004L321.33620689655174,252.06299999999993L330.68965517241384,260.505L340.0431034482758,265.59749999999997L348.49137931034477,263.137L357.83225574712645,239.07799999999997L366.8839798850575,222.74349999999998L376.23742816091954,218.92499999999995L385.2891522988506,213.3915L394.6426005747126,207.19650000000001L403.9960488505747,211.4105L413.04777298850576,192.25149999999996L422.41379310344826,189.63L431.4655172413793,170.82799999999997L440.8189655172414,164.10449999999997L450.1724137931035,159.27099999999996L458.9224137931035,165.8265L468.26329022988506,172.445L477.3150143678161,167.76199999999994L486.6684626436782,160.70600000000007L495.7201867816092,174.39799999999997L505.0736350574712,173.51599999999996L514.4270833333333,169.897L523.4788074712643,164.42999999999995L532.8448275862069,149.163L541.8965517241379,135.82799999999997L551.25,146.5555L560.6034482758621,138.74L569.0517241379309,146.7935L578.3926005747127,155.10250000000008L587.4443247126436,142.97499999999997L596.7977729885057,143.03450000000004L605.8494971264367,128.03699999999998L615.2029454022988,132.88450000000006L624.5563936781609,129.91649999999998L633.608117816092,137.54649999999998L642.9741379310344,122.68200000000002L652.0258620689656,123.09849999999994L661.3793103448277,111.97200000000004L670.7327586206895,111.76899999999995L679.1810344827586,106.79550000000006L688.5219109195402,101.28649999999999L697.5736350574713,115.46850000000006L706.9270833333334,115.43L715.9788074712643,113.16899999999998L725.3322557471264,103.66300000000001L734.6857040229885,92.45250000000004L743.7374281609195,77.72099999999995L753.1034482758621,69.77949999999993L762.155172413793,63.59500000000003L771.5086206896551,56.615999999999985L780.8620689655172,67.61300000000006L789.3103448275863,62.69900000000007L798.6512212643678,41.17050000000006L807.7029454022988,24.283000000000015L817.0563936781609,33.827499999999986L826.108117816092,50.65550000000002L835.4615660919541,44.10349999999994L844.815014367816,25.637500000000045L853.8667385057471,17.716999999999985L863.2327586206895,41.601L872.2844827586207,46.07400000000007L881.6379310344828,77.50750000000005L890.9913793103449,94.27949999999993L899.7413793103449,97.055L909.0822557471264,75.0435L918.1339798850574,69.86699999999996L927.4874281609195,112L936.5391522988506,116.41699999999992L945.8926005747127,111.00950000000006L955.2460488505747,151.77400000000006L964.2977729885057,220.9375L973.6637931034483,246.31599999999997L982.7155172413793,243.86249999999995L992.0689655172414,270.94199999999995L1001.4224137931035,302.7185L1009.8706896551723,280.7455L1019.2115660919541,254.5165L1028.2632902298851,238.301L1037.6167385057472,238.23799999999994L1046.6684626436781,214.382L1056.0219109195402,202.78299999999996L1065.3753591954023,190.022L1074.4270833333335,197.33350000000002L1083.7931034482758,176.52949999999998L1092.844827586207,169.71500000000003L1102.1982758620688,184.14550000000003L1111.551724137931,173.42849999999999L1120,160.84249999999997L1120,560L1111.551724137931,560L1102.1982758620688,560L1092.844827586207,560L1083.7931034482758,560L1074.4270833333335,560L1065.3753591954023,560L1056.0219109195402,560L1046.6684626436781,560L1037.6167385057472,560L1028.2632902298851,560L1019.2115660919541,560L1009.8706896551723,560L1001.4224137931035,560L992.0689655172414,560L982.7155172413793,560L973.6637931034483,560L964.2977729885057,560L955.2460488505747,560L945.8926005747127,560L936.5391522988506,560L927.4874281609195,560L918.1339798850574,560L909.0822557471264,560L899.7413793103449,560L890.9913793103449,560L881.6379310344828,560L872.2844827586207,560L863.2327586206895,560L853.8667385057471,560L844.815014367816,560L835.4615660919541,560L826.108117816092,560L817.0563936781609,560L807.7029454022988,560L798.6512212643678,560L789.3103448275863,560L780.8620689655172,560L771.5086206896551,560L762.155172413793,560L753.1034482758621,560L743.7374281609195,560L734.6857040229885,560L725.3322557471264,560L715.9788074712643,560L706.9270833333334,560L697.5736350574713,560L688.5219109195402,560L679.1810344827586,560L670.7327586206895,560L661.3793103448277,560L652.0258620689656,560L642.9741379310344,560L633.608117816092,560L624.5563936781609,560L615.2029454022988,560L605.8494971264367,560L596.7977729885057,560L587.4443247126436,560L578.3926005747127,560L569.0517241379309,560L560.6034482758621,560L551.25,560L541.8965517241379,560L532.8448275862069,560L523.4788074712643,560L514.4270833333333,560L505.0736350574712,560L495.7201867816092,560L486.6684626436782,560L477.3150143678161,560L468.26329022988506,560L458.9224137931035,560L450.1724137931035,560L440.8189655172414,560L431.4655172413793,560L422.41379310344826,560L413.04777298850576,560L403.9960488505747,560L394.6426005747126,560L385.2891522988506,560L376.23742816091954,560L366.8839798850575,560L357.83225574712645,560L348.49137931034477,560L340.0431034482758,560L330.68965517241384,560L321.33620689655174,560L312.2844827586207,560L302.9184626436782,560L293.86673850574715,560L284.51329022988506,560L275.159841954023,560L266.108117816092,560L256.7546695402299,560L247.70294540229884,560L238.3620689655172,560L229.91379310344826,560L220.56034482758622,560L211.20689655172413,560L202.15517241379308,560L192.78915229885058,560L183.73742816091954,560L174.38397988505747,560L165.0305316091954,560L155.97880747126436,560L146.6253591954023,560L137.57363505747125,560L128.23275862068965,560L119.7844827586207,560L110.4310344827586,560L101.07758620689654,560L92.02586206896552,560L82.65984195402298,560L73.60811781609196,560L64.25466954022988,560L54.90122126436781,560L45.84949712643678,560L36.49604885057471,560L27.444324712643677,560L18.10344827586207,560L9.353448275862068,560L0,560Z"></path><path class="line" d="M0,71.93899999999996L9.353448275862068,81.75299999999999L18.10344827586207,35.49700000000007L27.444324712643677,51.64949999999999L36.49604885057471,62.79000000000002L45.84949712643678,50.89000000000004L54.90122126436781,59.20950000000005L64.25466954022988,28.812000000000012L73.60811781609196,57.22149999999999L82.65984195402298,59.70999999999998L92.02586206896552,99.76749999999993L101.07758620689654,97.90199999999999L110.4310344827586,81.8965L119.7844827586207,126.02100000000002L128.23275862068965,153.88450000000006L137.57363505747125,122.68900000000002L146.6253591954023,120.46300000000002L155.97880747126436,131.46699999999993L165.0305316091954,136.06949999999995L174.38397988505747,163.247L183.73742816091954,195.67099999999994L192.78915229885058,189.077L202.15517241379308,161.1925L211.20689655172413,158.17199999999997L220.56034482758622,164.42999999999995L229.91379310344826,172.64449999999994L238.3620689655172,158.4135L247.70294540229884,183.07799999999997L256.7546695402299,186.50099999999992L266.108117816092,213.563L275.159841954023,240.933L284.51329022988506,239.3755L293.86673850574715,274.65200000000004L302.9184626436782,249.98400000000004L312.2844827586207,232.29150000000004L321.33620689655174,252.06299999999993L330.68965517241384,260.505L340.0431034482758,265.59749999999997L348.49137931034477,263.137L357.83225574712645,239.07799999999997L366.8839798850575,222.74349999999998L376.23742816091954,218.92499999999995L385.2891522988506,213.3915L394.6426005747126,207.19650000000001L403.9960488505747,211.4105L413.04777298850576,192.25149999999996L422.41379310344826,189.63L431.4655172413793,170.82799999999997L440.8189655172414,164.10449999999997L450.1724137931035,159.27099999999996L458.9224137931035,165.8265L468.26329022988506,172.445L477.3150143678161,167.76199999999994L486.6684626436782,160.70600000000007L495.7201867816092,174.39799999999997L505.0736350574712,173.51599999999996L514.4270833333333,169.897L523.4788074712643,164.42999999999995L532.8448275862069,149.163L541.8965517241379,135.82799999999997L551.25,146.5555L560.6034482758621,138.74L569.0517241379309,146.7935L578.3926005747127,155.10250000000008L587.4443247126436,142.97499999999997L596.7977729885057,143.03450000000004L605.8494971264367,128.03699999999998L615.2029454022988,132.88450000000006L624.5563936781609,129.91649999999998L633.608117816092,137.54649999999998L642.9741379310344,122.68200000000002L652.0258620689656,123.09849999999994L661.3793103448277,111.97200000000004L670.7327586206895,111.76899999999995L679.1810344827586,106.79550000000006L688.5219109195402,101.28649999999999L697.5736350574713,115.46850000000006L706.9270833333334,115.43L715.9788074712643,113.16899999999998L725.3322557471264,103.66300000000001L734.6857040229885,92.45250000000004L743.7374281609195,77.72099999999995L753.1034482758621,69.77949999999993L762.155172413793,63.59500000000003L771.5086206896551,56.615999999999985L780.8620689655172,67.61300000000006L789.3103448275863,62.69900000000007L798.6512212643678,41.17050000000006L807.7029454022988,24.283000000000015L817.0563936781609,33.827499999999986L826.108117816092,50.65550000000002L835.4615660919541,44.10349999999994L844.815014367816,25.637500000000045L853.8667385057471,17.716999999999985L863.2327586206895,41.601L872.2844827586207,46.07400000000007L881.6379310344828,77.50750000000005L890.9913793103449,94.27949999999993L899.7413793103449,97.055L909.0822557471264,75.0435L918.1339798850574,69.86699999999996L927.4874281609195,112L936.5391522988506,116.41699999999992L945.8926005747127,111.00950000000006L955.2460488505747,151.77400000000006L964.2977729885057,220.9375L973.6637931034483,246.31599999999997L982.7155172413793,243.86249999999995L992.0689655172414,270.94199999999995L1001.4224137931035,302.7185L1009.8706896551723,280.7455L1019.2115660919541,254.5165L1028.2632902298851,238.301L1037.6167385057472,238.23799999999994L1046.6684626436781,214.382L1056.0219109195402,202.78299999999996L1065.3753591954023,190.022L1074.4270833333335,197.33350000000002L1083.7931034482758,176.52949999999998L1092.844827586207,169.71500000000003L1102.1982758620688,184.14550000000003L1111.551724137931,173.42849999999999L1120,160.84249999999997"></path></g></svg>