<svg width="1280" height="720" class="time chart"><g transform="translate(80,80)"><rect class="background" width="1120" height="440"></rect><g class="x axis minor" transform="translate(0,440)"><line class="tick minor" y2="-440" x2="0" transform="translate(55.2155172413793,0)" style="opacity: 1;"></line><line class="tick minor" y2="-440" x2="0" transform="translate(165.34482758620692,0)" style="opacity: 1;"></line><line class="tick minor" y2="-440" x2="0" transform="translate(275.4741379310345,0)" style="opacity: 1;"></line><line class="tick minor" y2="-440" x2="0" transform="translate(385.6034482758621,0)" style="opacity: 1;"></line><line class="tick minor" y2="-440" x2="0" transform="translate(496.0344827586207,0)" style="opacity: 1;"></line><line class="tick minor" y2="-440" x2="0" transform="translate(606.1637931034484,0)" style="opacity: 1;"></line><line class="tick minor" y2="-440" x2="0" transform="translate(716.2931034482758,0)" style="opacity: 1;"></line><line class="tick minor" y2="-440" x2="0" transform="translate(826.4224137931035,0)" style="opacity: 1;"></line><line class="tick minor" y2="-440" x2="0" transform="translate(936.8534482758621,0)" style="opacity: 1;"></line><line class="tick minor" y2="-440" x2="0" transform="translate(1046.9827586206895,0)" style="opacity: 1;"></line><g transform="translate(0,0)" style="opacity: 1;"><line class="tick" y2="-440" x2="0"></line><text y="8" x="0" dy=".71em" text-anchor="middle">2000</text></g><g transform="translate(110.4310344827586,0)" style="opacity: 1;"><line class="tick" y2="-440" x2="0"></line><text y="8" x="0" dy=".71em" text-anchor="middle">2001</text></g><g transform="translate(220.56034482758622,0)" style="opacity: 1;"><line class="tick" y2="-440" x2="0"></line><text y="8" x="0" dy=".71em" text-anchor="middle">2002</text></g><g transform="translate(330.68965517241384,0)" style="opacity: 1;"><line class="tick" y2="-440" x2="0"></line><text y="8" x="0" dy=".71em" text-anchor="middle">2003</text></g><g transform="translate(440.8189655172414,0)" style="opacity: 1;"><line class="tick" y2="-440" x2="0"></line><text y="8" x="0" dy=".71em" text-anchor="middle">2004</text></g><g transform="translate(551.25,0)" style="opacity: 1;"><line class="tick" y2="-440" x2="0"></line><text y="8" x="0" dy=".71em" text-anchor="middle">2005</text></g><g transform="translate(661.3793103448277,0)" style="opacity: 1;"><line class="tick" y2="-440" x2="0"></line><text y="8" x="0" dy=".71em" text-anchor="middle">2006</text></g><g transform="translate(771.5086206896551,0)" style="opacity: 1;"><line class="tick" y2="-440" x2="0"></line><text y="8" x="0" dy=".71em" text-anchor="middle">2007</text></g><g transform="translate(881.6379310344828,0)" style="opacity: 1;"><line class="tick" y2="-440" x2="0"></line><text y="8" x="0" dy=".71em" text-anchor="middle">2008</text></g><g transform="translate(992.0689655172414,0)" style="opacity: 1;"><line class="tick" y2="-440" x2="0"></line><text y="8" x="0" dy=".71em" text-anchor="middle">2009</text></g><g transform="translate(1102.1982758620688,0)" style="opacity: 1;"><line class="tick" y2="-440" x2="0"></line><text y="8" x="0" dy=".71em" text-anchor="middle">2010</text></g><path class="domain" d="M0,-440V0H1120V-440"></path></g><g class="y axis minor" transform="translate(1120)"><line class="tick minor" x2="-1120" y2="0" transform="translate(0,412.5)" style="opacity: 1;"></line><line class="tick minor" x2="-1120" y2="0" transform="translate(0,357.5)" style="opacity: 1;"></line><line class="tick minor" x2="-1120" y2="0" transform="translate(0,302.5)" style="opacity: 1;"></line><line class="tick minor" x2="-1120" y2="0" transform="translate(0,247.5)" style="opacity: 1;"></line><line class="tick minor" x2="-1120" y2="0" transform="translate(0,192.5)" style="opacity: 1;"></line><line class="tick minor" x2="-1120" y2="0" transform="translate(0,137.5)" style="opacity: 1;"></line><line class="tick minor" x2="-1120" y2="0" transform="translate(0,82.5)" style="opacity: 1;"></line><line class="tick minor" x2="-1120" y2="0" transform="translate(0,27.5)" style="opacity: 1;"></line><g transform="translate(0,440)" style="opacity: 1;"><line class="tick" x2="-1120" y2="0"></line><text x="8" y="0" dy=".32em" text-anchor="start">0</text></g><g transform="translate(0,385)" style="opacity: 1;"><line class="tick" x2="-1120" y2="0"></line><text x="8" y="0" dy=".32em" text-anchor="start">200</text></g><g transform="translate(0,330)" style="opacity: 1;"><line class="tick" x2="-1120" y2="0"></line><text x="8" y="0" dy=".32em" text-anchor="start">400</text></g><g transform="translate(0,275)" style="opacity: 1;"><line class="tick" x2="-1120" y2="0"></line><text x="8" y="0" dy=".32em" text-anchor="start">600</text></g><g transform="translate(0,220)" style="opacity: 1;"><line class="tick" x2="-1120" y2="0"></line><text x="8" y="0" dy=".32em" text-anchor="start">800</text></g><g transform="translate(0,165)" style="opacity: 1;"><line class="tick" x2="-1120" y2="0"></line><text x="8" y="0" dy=".32em" text-anchor="start">1,000</text></g><g transform="translate(0,110)" style="opacity: 1;"><line class="tick" x2="-1120" y2="0"></line><text x="8" y="0" dy=".32em" text-anchor="start">1,200</text></g><g transform="translate(0,55)" style="opacity: 1;"><line class="tick" x2="-1120" y2="0"></line><text x="8" y="0" dy=".32em" text-anchor="start">1,400</text></g><g transform="translate(0,0)" style="opacity: 1;"><line class="tick" x2="-1120" y2="0"></line><text x="8" y="0" dy=".32em" text-anchor="start">1,600</text></g><path class="domain" d="M-1120,0H0V440H-1120"></path></g><g class="x axis major" transform="translate(0,440)"><g transform="translate(0,0)" style="opacity: 1;"><line class="tick" y2="6" x2="0"></line><text y="14" x="0" dy=".71em" text-anchor="middle">2000</text></g><g transform="translate(110.4310344827586,0)" style="opacity: 1;"><line class="tick" y2="6" x2="0"></line><text y="14" x="0" dy=".71em" text-anchor="middle">2001</text></g><g transform="translate(220.56034482758622,0)" style="opacity: 1;"><line class="tick" y2="6" x2="0"></line><text y="14" x="0" dy=".71em" text-anchor="middle">2002</text></g><g transform="translate(330.68965517241384,0)" style="opacity: 1;"><line class="tick" y2="6" x2="0"></line><text y="14" x="0" dy=".71em" text-anchor="middle">2003</text></g><g transform="translate(440.8189655172414,0)" style="opacity: 1;"><line class="tick" y2="6" x2="0"></line><text y="14" x="0" dy=".71em" text-anchor="middle">2004</text></g><g transform="translate(551.25,0)" style="opacity: 1;"><line class="tick" y2="6" x2="0"></line><text y="14" x="0" dy=".71em" text-anchor="middle">2005</text></g><g transform="translate(661.3793103448277,0)" style="opacity: 1;"><line class="tick" y2="6" x2="0"></line><text y="14" x="0" dy=".71em" text-anchor="middle">2006</text></g><g transform="translate(771.5086206896551,0)" style="opacity: 1;"><line class="tick" y2="6" x2="0"></line><text y="14" x="0" dy=".71em" text-anchor="middle">2007</text></g><g transform="translate(881.6379310344828,0)" style="opacity: 1;"><line class="tick" y2="6" x2="0"></line><text y="14" x="0" dy=".71em" text-anchor="middle">2008</text></g><g transform="translate(992.0689655172414,0)" style="opacity: 1;"><line class="tick" y2="6" x2="0"></line><text y="14" x="0" dy=".71em" text-anchor="middle">2009</text></g><g transform="translate(1102.1982758620688,0)" style="opacity: 1;"><line class="tick" y2="6" x2="0"></line><text y="14" x="0" dy=".71em" text-anchor="middle">2010</text></g><path class="domain" d="M0,6V0H1120V6"></path></g><g class="y axis major" transform="translate(1120)"><g transform="translate(0,440)" style="opacity: 1;"><line class="tick" x2="6" y2="0"></line><text x="14" y="0" dy=".32em" text-anchor="start">0</text></g><g transform="translate(0,385)" style="opacity: 1;"><line class="tick" x2="6" y2="0"></line><text x="14" y="0" dy=".32em" text-anchor="start">200</text></g><g transform="translate(0,330)" style="opacity: 1;"><line class="tick" x2="6" y2="0"></line><text x="14" y="0" dy=".32em" text-anchor="start">400</text></g><g transform="translate(0,275)" style="opacity: 1;"><line class="tick" x2="6" y2="0"></line><text x="14" y="0" dy=".32em" text-anchor="start">600</text></g><g transform="translate(0,220)" style="opacity: 1;"><line class="tick" x2="6" y2="0"></line><text x="14" y="0" dy=".32em" text-anchor="start">800</text></g><g transform="translate(0,165)" style="opacity: 1;"><line class="tick" x2="6" y2="0"></line><text x="14" y="0" dy=".32em" text-anchor="start">1,000</text></g><g transform="translate(0,110)" style="opacity: 1;"><line class="tick" x2="6" y2="0"></line><text x="14" y="0" dy=".32em" text-anchor="start">1,200</text></g><g transform="translate(0,55)" style="opacity: 1;"><line class="tick" x2="6" y2="0"></line><text x="14" y="0" dy=".32em" text-anchor="start">1,400</text></g><g transform="translate(0,0)" style="opacity: 1;"><line class="tick" x2="6" y2="0"></line><text x="14" y="0" dy=".32em" text-anchor="start">1,600</text></g><path class="domain" d="M6,0H0V440H6"></path></g><path class="area" d="M0,56.523499999999956L9.353448275862068,64.23449999999997L18.10344827586207,27.89050000000003L27.444324712643677,40.58175L36.49604885057471,49.335000000000036L45.84949712643678,39.985000000000014L54.90122126436781,46.52175L64.25466954022988,22.637999999999977L73.60811781609196,44.959749999999985L82.65984195402298,46.914999999999964L92.02586206896552,78.38874999999996L101.07758620689654,76.923L110.4310344827586,64.34725000000003L119.7844827586207,99.01650000000001L128.23275862068965,120.90925000000004L137.57363505747125,96.39850000000001L146.6253591954023,94.64949999999999L155.97880747126436,103.29549999999995L165.0305316091954,106.91174999999998L174.38397988505747,128.26550000000003L183.73742816091954,153.74149999999997L192.78915229885058,148.5605L202.15517241379308,126.65125L211.20689655172413,124.27799999999996L220.56034482758622,129.19499999999994L229.91379310344826,135.64924999999994L238.3620689655172,124.46774999999997L247.70294540229884,143.84699999999998L256.7546695402299,146.53649999999993L266.108117816092,167.79949999999997L275.159841954023,189.30449999999996L284.51329022988506,188.08075L293.86673850574715,215.79800000000003L302.9184626436782,196.416L312.2844827586207,182.51475L321.33620689655174,198.04949999999997L330.68965517241384,204.68249999999998L340.0431034482758,208.68375L348.49137931034477,206.75050000000002L357.83225574712645,187.847L366.8839798850575,175.01274999999998L376.23742816091954,172.0125L385.2891522988506,167.66474999999997L394.6426005747126,162.79725000000002L403.9960488505747,166.10825L413.04777298850576,151.05474999999996L422.41379310344826,148.995L431.4655172413793,134.22199999999998L440.8189655172414,128.93924999999996L450.1724137931035,125.14150000000001L458.9224137931035,130.29224999999997L468.26329022988506,135.4925L477.3150143678161,131.813L486.6684626436782,126.26900000000006L495.7201867816092,137.027L505.0736350574712,136.334L514.4270833333333,133.4905L523.4788074712643,129.19499999999994L532.8448275862069,117.1995L541.8965517241379,106.72199999999998L551.25,115.15075000000002L560.6034482758621,109.00999999999999L569.0517241379309,115.33775000000003L578.3926005747127,121.86625000000004L587.4443247126436,112.33749999999998L596.7977729885057,112.38425000000001L605.8494971264367,100.60049999999995L615.2029454022988,104.40925000000004L624.5563936781609,102.07724999999999L633.608117816092,108.07225L642.9741379310344,96.39300000000003L652.0258620689656,96.72024999999996L661.3793103448277,87.97800000000001L670.7327586206895,87.81849999999997L679.1810344827586,83.91075000000001L688.5219109195402,79.58224999999999L697.5736350574713,90.72525000000002L706.9270833333334,90.695L715.9788074712643,88.9185L725.3322557471264,81.4495L734.6857040229885,72.64125000000001L743.7374281609195,61.06649999999996L753.1034482758621,54.82674999999995L762.155172413793,49.96750000000003L771.5086206896551,44.48399999999998L780.8620689655172,53.12450000000001L789.3103448275863,49.26350000000002L798.6512212643678,32.34825000000001L807.7029454022988,19.079500000000053L817.0563936781609,26.578750000000014L826.108117816092,39.800749999999994L835.4615660919541,34.65274999999997L844.815014367816,20.14375000000001L853.8667385057471,13.920499999999947L863.2327586206895,32.68649999999997L872.2844827586207,36.20100000000002L881.6379310344828,60.89875000000001L890.9913793103449,74.07674999999995L899.7413793103449,76.2575L909.0822557471264,58.96274999999997L918.1339798850574,54.89549999999997L927.4874281609195,88L936.5391522988506,91.47049999999996L945.8926005747127,87.22175000000004L955.2460488505747,119.25100000000003L964.2977729885057,173.59375L973.6637931034483,193.534L982.7155172413793,191.60625L992.0689655172414,212.88299999999998L1001.4224137931035,237.85025L1009.8706896551723,220.58575L1019.2115660919541,199.97725000000003L1028.2632902298851,187.2365L1037.6167385057472,187.18699999999998L1046.6684626436781,168.44299999999998L1056.0219109195402,159.3295L1065.3753591954023,149.303L1074.4270833333335,155.04775L1083.7931034482758,138.70175L1092.844827586207,133.34750000000003L1102.1982758620688,144.68574999999998L1111.551724137931,136.26524999999998L1120,126.37624999999997L1120,440L1111.551724137931,440L1102.1982758620688,440L1092.844827586207,440L1083.7931034482758,440L1074.4270833333335,440L1065.3753591954023,440L1056.0219109195402,440L1046.6684626436781,440L1037.6167385057472,440L1028.2632902298851,440L1019.2115660919541,440L1009.8706896551723,440L1001.4224137931035,440L992.0689655172414,440L982.7155172413793,440L973.6637931034483,440L964.2977729885057,440L955.2460488505747,440L945.8926005747127,440L936.5391522988506,440L927.4874281609195,440L918.1339798850574,440L909.0822557471264,440L899.7413793103449,440L890.9913793103449,440L881.6379310344828,440L872.2844827586207,440L863.2327586206895,440L853.8667385057471,440L844.815014367816,440L835.4615660919541,440L826.108117816092,440L817.0563936781609,440L807.7029454022988,440L798.6512212643678,440L789.3103448275863,440L780.8620689655172,440L771.5086206896551,440L762.155172413793,440L753.1034482758621,440L743.7374281609195,440L734.6857040229885,440L725.3322557471264,440L715.9788074712643,440L706.9270833333334,440L697.5736350574713,440L688.5219109195402,440L679.1810344827586,440L670.7327586206895,440L661.3793103448277,440L652.0258620689656,440L642.9741379310344,440L633.608117816092,440L624.5563936781609,440L615.2029454022988,440L605.8494971264367,440L596.7977729885057,440L587.4443247126436,440L578.3926005747127,440L569.0517241379309,440L560.6034482758621,440L551.25,440L541.8965517241379,440L532.8448275862069,440L523.4788074712643,440L514.4270833333333,440L505.0736350574712,440L495.7201867816092,440L486.6684626436782,440L477.3150143678161,440L468.26329022988506,440L458.9224137931035,440L450.1724137931035,440L440.8189655172414,440L431.4655172413793,440L422.41379310344826,440L413.04777298850576,440L403.9960488505747,440L394.6426005747126,440L385.2891522988506,440L376.23742816091954,440L366.8839798850575,440L357.83225574712645,440L348.49137931034477,440L340.0431034482758,440L330.68965517241384,440L321.33620689655174,440L312.2844827586207,440L302.9184626436782,440L293.86673850574715,440L284.51329022988506,440L275.159841954023,440L266.108117816092,440L256.7546695402299,440L247.70294540229884,440L238.3620689655172,440L229.91379310344826,440L220.56034482758622,440L211.20689655172413,440L202.15517241379308,440L192.78915229885058,440L183.73742816091954,440L174.38397988505747,440L165.0305316091954,440L155.97880747126436,440L146.6253591954023,440L137.57363505747125,440L128.23275862068965,440L119.7844827586207,440L110.4310344827586,440L101.07758620689654,440L92.02586206896552,440L82.65984195402298,440L73.60811781609196,440L64.25466954022988,440L54.90122126436781,440L45.84949712643678,440L36.49604885057471,440L27.444324712643677,440L18.10344827586207,440L9.353448275862068,440L0,440Z"></path><path class="line" d="M0,56.523499999999956L9.353448275862068,64.23449999999997L18.10344827586207,27.89050000000003L27.444324712643677,40.58175L36.49604885057471,49.335000000000036L45.84949712643678,39.985000000000014L54.90122126436781,46.52175L64.25466954022988,22.637999999999977L73.60811781609196,44.959749999999985L82.65984195402298,46.914999999999964L92.02586206896552,78.38874999999996L101.07758620689654,76.923L110.4310344827586,64.34725000000003L119.7844827586207,99.01650000000001L128.23275862068965,120.90925000000004L137.57363505747125,96.39850000000001L146.6253591954023,94.64949999999999L155.97880747126436,103.29549999999995L165.0305316091954,106.91174999999998L174.38397988505747,128.26550000000003L183.73742816091954,153.74149999999997L192.78915229885058,148.5605L202.15517241379308,126.65125L211.20689655172413,124.27799999999996L220.56034482758622,129.19499999999994L229.91379310344826,135.64924999999994L238.3620689655172,124.46774999999997L247.70294540229884,143.84699999999998L256.7546695402299,146.53649999999993L266.108117816092,167.79949999999997L275.159841954023,189.30449999999996L284.51329022988506,188.08075L293.86673850574715,215.79800000000003L302.9184626436782,196.416L312.2844827586207,182.51475L321.33620689655174,198.04949999999997L330.68965517241384,204.68249999999998L340.0431034482758,208.68375L348.49137931034477,206.75050000000002L357.83225574712645,187.847L366.8839798850575,175.01274999999998L376.23742816091954,172.0125L385.2891522988506,167.66474999999997L394.6426005747126,162.79725000000002L403.9960488505747,166.10825L413.04777298850576,151.05474999999996L422.41379310344826,148.995L431.4655172413793,134.22199999999998L440.8189655172414,128.93924999999996L450.1724137931035,125.14150000000001L458.9224137931035,130.29224999999997L468.26329022988506,135.4925L477.3150143678161,131.813L486.6684626436782,126.26900000000006L495.7201867816092,137.027L505.0736350574712,136.334L514.4270833333333,133.4905L523.4788074712643,129.19499999999994L532.8448275862069,117.1995L541.8965517241379,106.72199999999998L551.25,115.15075000000002L560.6034482758621,109.00999999999999L569.0517241379309,115.33775000000003L578.3926005747127,121.86625000000004L587.4443247126436,112.33749999999998L596.7977729885057,112.38425000000001L605.8494971264367,100.60049999999995L615.2029454022988,104.40925000000004L624.5563936781609,102.07724999999999L633.608117816092,108.07225L642.9741379310344,96.39300000000003L652.0258620689656,96.72024999999996L661.3793103448277,87.97800000000001L670.7327586206895,87.81849999999997L679.1810344827586,83.91075000000001L688.5219109195402,79.58224999999999L697.5736350574713,90.72525000000002L706.9270833333334,90.695L715.9788074712643,88.9185L725.3322557471264,81.4495L734.6857040229885,72.64125000000001L743.7374281609195,61.06649999999996L753.1034482758621,54.82674999999995L762.155172413793,49.96750000000003L771.5086206896551,44.48399999999998L780.8620689655172,53.12450000000001L789.3103448275863,49.26350000000002L798.6512212643678,32.34825000000001L807.7029454022988,19.079500000000053L817.0563936781609,26.578750000000014L826.108117816092,39.800749999999994L835.4615660919541,34.65274999999997L844.815014367816,20.14375000000001L853.8667385057471,13.920499999999947L863.2327586206895,32.68649999999997L872.2844827586207,36.20100000000002L881.6379310344828,60.89875000000001L890.9913793103449,74.07674999999995L899.7413793103449,76.2575L909.0822557471264,58.96274999999997L918.1339798850574,54.89549999999997L927.4874281609195,88L936.5391522988506,91.47049999999996L945.8926005747127,87.22175000000004L955.2460488505747,119.25100000000003L964.2977729885057,173.59375L973.6637931034483,193.534L982.7155172413793,191.60625L992.0689655172414,212.88299999999998L1001.4224137931035,237.85025L1009.8706896551723,220.58575L1019.2115660919541,199.97725000000003L1028.2632902298851,187.2365L1037.6167385057472,187.18699999999998L1046.6684626436781,168.44299999999998L1056.0219109195402,159.3295L1065.3753591954023,149.303L1074.4270833333335,155.04775L1083.7931034482758,138.70175L1092.844827586207,133.34750000000003L1102.1982758620688,144.68574999999998L1111.551724137931,136.26524999999998L1120,126.37624999999997"></path></g></svg>