<svg width="1280" height="720" class="bar chart"><g transform="translate(80,80)"><rect class="bar" y="367" width="140" height="56"></rect><rect class="bar" y="297" width="140" height="56"></rect><rect class="bar" y="227" width="280" height="56"></rect><rect class="bar" y="157" width="420" height="56"></rect><rect class="bar" y="87" width="700" height="56"></rect><rect class="bar" y="17" width="1120" height="56"></rect><g class="x axis" transform="translate(0,440)"><g transform="translate(0,0)" style="opacity: 1;"><line class="tick" y2="6" x2="0"></line><text y="14" x="0" dy=".71em" text-anchor="middle">0</text></g><g transform="translate(140,0)" style="opacity: 1;"><line class="tick" y2="6" x2="0"></line><text y="14" x="0" dy=".71em" text-anchor="middle">1</text></g><g transform="translate(280,0)" style="opacity: 1;"><line class="tick" y2="6" x2="0"></line><text y="14" x="0" dy=".71em" text-anchor="middle">2</text></g><g transform="translate(420,0)" style="opacity: 1;"><line class="tick" y2="6" x2="0"></line><text y="14" x="0" dy=".71em" text-anchor="middle">3</text></g><g transform="translate(560,0)" style="opacity: 1;"><line class="tick" y2="6" x2="0"></line><text y="14" x="0" dy=".71em" text-anchor="middle">4</text></g><g transform="translate(700,0)" style="opacity: 1;"><line class="tick" y2="6" x2="0"></line><text y="14" x="0" dy=".71em" text-anchor="middle">5</text></g><g transform="translate(840,0)" style="opacity: 1;"><line class="tick" y2="6" x2="0"></line><text y="14" x="0" dy=".71em" text-anchor="middle">6</text></g><g transform="translate(980,0)" style="opacity: 1;"><line class="tick" y2="6" x2="0"></line><text y="14" x="0" dy=".71em" text-anchor="middle">7</text></g><g transform="translate(1120,0)" style="opacity: 1;"><line class="tick" y2="6" x2="0"></line><text y="14" x="0" dy=".71em" text-anchor="middle">8</text></g><path class="domain" d="M0,6V0H1120V6"></path></g><g class="y axis"><g transform="translate(0,395)" style="opacity: 1;"><line class="tick" x2="0" y2="0"></line><text x="-8" y="0" dy=".32em" text-anchor="end">A</text></g><g transform="translate(0,325)" style="opacity: 1;"><line class="tick" x2="0" y2="0"></line><text x="-8" y="0" dy=".32em" text-anchor="end">B</text></g><g transform="translate(0,255)" style="opacity: 1;"><line class="tick" x2="0" y2="0"></line><text x="-8" y="0" dy=".32em" text-anchor="end">C</text></g><g transform="translate(0,185)" style="opacity: 1;"><line class="tick" x2="0" y2="0"></line><text x="-8" y="0" dy=".32em" text-anchor="end">D</text></g><g transform="translate(0,115)" style="opacity: 1;"><line class="tick" x2="0" y2="0"></line><text x="-8" y="0" dy=".32em" text-anchor="end">E</text></g><g transform="translate(0,45)" style="opacity: 1;"><line class="tick" x2="0" y2="0"></line><text x="-8" y="0" dy=".32em" text-anchor="end">F</text></g><path class="domain" d="M0,0H0V440H0"></path></g></g></svg>