<svg class="interpolate chart" width="1280" height="720"><rect class="background" width="1280" height="720" style="pointer-events: all;"></rect><path class="area" d="M0,381.439080598762C0,381.439080598762,0,381.439080598762,6.095238095238095,377.0359061004265C12.19047619047619,372.63273160209087,24.38095238095238,363.8263826054198,36.57142857142857,361.38492358972576C48.76190476190476,358.9434645740318,60.95238095238095,362.8668955393149,73.14285714285714,363.21175225120214C85.33333333333333,363.5566089630894,97.52380952380952,360.32289142158083,109.71428571428571,359.5277576540536C121.9047619047619,358.73262388652637,134.09523809523807,360.37607389298046,146.28571428571428,363.3084136264472C158.47619047619045,366.240753359914,170.66666666666663,370.46198282039336,182.85714285714283,368.78329094167395C195.04761904761904,367.1045990629545,207.2380952380952,359.52598584503625,219.42857142857142,359.7508485633677C231.6190476190476,359.9757112816992,243.80952380952377,368.0040499362804,255.99999999999994,369.4807793757082C268.19047619047615,370.95750881513607,280.38095238095235,365.8826290394105,292.57142857142856,361.69398103428114C304.7619047619047,357.5053330291518,316.9523809523809,354.20291679461866,329.1428571428571,348.8752463871219C341.33333333333326,343.5475759796251,353.52380952380946,336.1946513991646,365.71428571428567,333.9952523130231C377.9047619047618,331.7958532268816,390.095238095238,334.74997963505905,402.2857142857142,342.1345643577376C414.4761904761904,349.5191490804162,426.66666666666663,361.3341921175959,438.85714285714283,359.6130233404609C451.04761904761904,357.891854563326,463.23809523809524,342.6344739718764,475.4285714285714,345.54230298430707C487.6190476190476,348.4501319967377,499.80952380952374,369.5231706130486,511.9999999999999,374.8660802188836C524.1904761904761,380.20898982471857,536.3809523809523,369.82177042007766,548.5714285714284,364.2027085781977C560.7619047619047,358.58364673631775,572.952380952381,357.73274245719875,585.1428571428571,359.7261117971372C597.3333333333333,361.7194811370757,609.5238095238094,366.55712409607156,621.7142857142857,365.9932081600616C633.9047619047618,365.42929222405155,646.095238095238,359.4638173930357,658.2857142857142,352.0234736311063C670.4761904761904,344.5831298691769,682.6666666666665,335.6679171763341,694.8571428571428,333.68424230037715C707.0476190476189,331.70056742442017,719.2380952380952,336.6484303653491,731.4285714285713,345.22417173035365C743.6190476190475,353.7999130953582,755.8095238095237,366.0035328844383,768,361.7117017839541C780.1904761904761,357.41987068346987,792.3809523809523,336.6325886934212,804.5714285714284,329.7414890659652C816.7619047619046,322.85038943850907,828.9523809523808,329.8554721736456,841.1428571428571,334.05479590473226C853.3333333333333,338.2541196358189,865.5238095238094,339.6476843628557,877.7142857142857,342.103620601938C889.9047619047619,344.5595568410203,902.0952380952381,348.07786459214805,914.2857142857143,357.8387380842518C926.4761904761905,367.5996115763555,938.6666666666667,383.6030508094353,950.8571428571429,384.21993142755974C963.047619047619,384.83681204568427,975.2380952380952,370.0671340488535,987.4285714285713,365.46188856892854C999.6190476190475,360.8566430890035,1011.8095238095236,366.4158301259842,1023.9999999999998,371.3991598510976C1036.190476190476,376.382489576211,1048.3809523809523,380.7899619894571,1060.5714285714284,376.89605586348046C1072.7619047619046,373.0021497375038,1084.9523809523807,360.8068650723044,1097.1428571428569,362.9673560347954C1109.3333333333333,365.1278469972863,1121.5238095238096,381.6441135874677,1133.7142857142858,386.89832888747026C1145.904761904762,392.1525441874728,1158.095238095238,386.1447081972966,1170.2857142857142,380.564437045025C1182.4761904761904,374.9841658927533,1194.6666666666665,369.83145957838616,1206.857142857143,370.3688003783972C1219.047619047619,370.9061411784083,1231.2380952380952,377.1335290927976,1243.4285714285713,377.22530220203276C1255.6190476190475,377.3170753112679,1267.8095238095236,371.27323361534894,1273.9047619047617,368.2513127673895C1280,365.22939191943,1280,365.22939191943,1279.9999999999998,365.22939191943L1280,720C1280,720,1280,720,1273.9047619047617,720C1267.8095238095236,720,1255.6190476190475,720,1243.4285714285713,720C1231.2380952380952,720,1219.047619047619,720,1206.8571428571427,720C1194.6666666666665,720,1182.4761904761904,720,1170.2857142857142,720C1158.095238095238,720,1145.904761904762,720,1133.7142857142858,720C1121.5238095238096,720,1109.3333333333333,720,1097.142857142857,720C1084.9523809523807,720,1072.7619047619046,720,1060.5714285714284,720C1048.3809523809523,720,1036.190476190476,720,1023.9999999999998,720C1011.8095238095236,720,999.6190476190475,720,987.4285714285713,720C975.2380952380952,720,963.047619047619,720,950.8571428571429,720C938.6666666666667,720,926.4761904761905,720,914.2857142857142,720C902.0952380952381,720,889.9047619047619,720,877.7142857142857,720C865.5238095238094,720,853.3333333333333,720,841.1428571428571,720C828.9523809523808,720,816.7619047619046,720,804.5714285714284,720C792.3809523809523,720,780.1904761904761,720,768,720C755.8095238095237,720,743.6190476190475,720,731.4285714285713,720C719.2380952380952,720,707.0476190476189,720,694.8571428571428,720C682.6666666666665,720,670.4761904761904,720,658.2857142857141,720C646.095238095238,720,633.9047619047618,720,621.7142857142857,720C609.5238095238094,720,597.3333333333333,720,585.1428571428571,720C572.952380952381,720,560.7619047619047,720,548.5714285714284,720C536.3809523809523,720,524.1904761904761,720,511.99999999999994,720C499.80952380952374,720,487.6190476190476,720,475.42857142857144,720C463.23809523809524,720,451.04761904761904,720,438.85714285714283,720C426.66666666666663,720,414.4761904761904,720,402.2857142857142,720C390.095238095238,720,377.9047619047618,720,365.7142857142856,720C353.52380952380946,720,341.33333333333326,720,329.1428571428571,720C316.9523809523809,720,304.7619047619047,720,292.57142857142856,720C280.38095238095235,720,268.19047619047615,720,255.99999999999994,720C243.80952380952377,720,231.6190476190476,720,219.42857142857142,720C207.2380952380952,720,195.04761904761904,720,182.85714285714283,720C170.66666666666663,720,158.47619047619045,720,146.28571428571428,720C134.09523809523807,720,121.9047619047619,720,109.71428571428571,720C97.52380952380952,720,85.33333333333333,720,73.14285714285714,720C60.95238095238095,720,48.76190476190476,720,36.57142857142857,720C24.38095238095238,720,12.19047619047619,720,6.095238095238095,720C0,720,0,720,0,720Z"></path><circle r="6" cx="0" cy="381.439080598762"></circle><circle r="6" cx="36.57142857142857" cy="355.0200336087487"></circle><circle r="6" cx="73.14285714285714" cy="366.790326504598"></circle><circle r="6" cx="109.71428571428572" cy="357.0891738800723"></circle><circle r="6" cx="146.28571428571428" cy="362.0195238994346"></circle><circle r="6" cx="182.85714285714283" cy="374.68321228087274"></circle><circle r="6" cx="219.42857142857144" cy="351.947372627118"></circle><circle r="6" cx="255.99999999999997" cy="376.0323885908616"></circle><circle r="6" cx="292.57142857142856" cy="360.80774926368497"></circle><circle r="6" cx="329.1428571428571" cy="350.9005005600855"></circle><circle r="6" cx="365.71428571428567" cy="328.8417268187042"></circle><circle r="6" cx="402.2857142857143" cy="337.7041060432365"></circle><circle r="6" cx="438.8571428571429" cy="373.14923515477557"></circle><circle r="6" cx="475.42857142857144" cy="327.37709338042686"></circle><circle r="6" cx="511.99999999999994" cy="390.59620922935954"></circle><circle r="6" cx="548.5714285714286" cy="359.4345510154367"></circle><circle r="6" cx="585.1428571428571" cy="356.8818381780798"></circle><circle r="6" cx="621.7142857142857" cy="371.3947670550675"></circle><circle r="6" cx="658.2857142857142" cy="353.4983425620198"></circle><circle r="6" cx="694.8571428571428" cy="326.7527044834913"></circle><circle r="6" cx="731.4285714285713" cy="341.596293306278"></circle><circle r="6" cx="768" cy="378.20715267351846"></circle><circle r="6" cx="804.5714285714286" cy="315.8453067033726"></circle><circle r="6" cx="841.1428571428571" cy="336.86055490878203"></circle><circle r="6" cx="877.7142857142858" cy="341.0412490898926"></circle><circle r="6" cx="914.2857142857143" cy="351.5961723432758"></circle><circle r="6" cx="950.8571428571429" cy="399.606490042515"></circle><circle r="6" cx="987.4285714285713" cy="355.2974560520228"></circle><circle r="6" cx="1023.9999999999999" cy="371.9750171629649"></circle><circle r="6" cx="1060.5714285714284" cy="385.19743440270327"></circle><circle r="6" cx="1097.142857142857" cy="348.611580407105"></circle><circle r="6" cx="1133.7142857142858" cy="398.1603801776491"></circle><circle r="6" cx="1170.2857142857142" cy="380.13687220712046"></circle><circle r="6" cx="1206.857142857143" cy="364.678753264019"></circle><circle r="6" cx="1243.4285714285713" cy="383.3609170071869"></circle><circle r="6" cx="1280" cy="365.22939191943"></circle></svg>